<?xml version="1.0" encoding="UTF-8"?>
<svg width="512px" height="512px" viewBox="0 0 512 512" version="1.1" xmlns="http://www.w3.org/2000/svg" xmlns:xlink="http://www.w3.org/1999/xlink">
    <title>logo_single</title>
    <g id="logo_single" stroke="none" stroke-width="1" fill="none" fill-rule="evenodd">
        <g id="imago" transform="translate(16.000000, 25.000000)" fill="#FF8163" fill-rule="nonzero">
            <path d="M240,0 C284.817926,0 325.490193,10.4256666 362.016807,31.2769997 C398.543416,52.1283328 427.338933,81.0511506 448.40336,118.045453 C469.467787,155.039756 480,196.854525 480,243.489767 C480,290.125003 469.355742,332.051881 448.067227,369.27039 C426.778712,406.488899 397.871144,435.523819 361.344536,456.375153 C324.817928,477.226486 300.672265,433.001483 240,433.001483 C179.327729,433.001483 155.182072,477.226486 118.655458,456.375153 C82.1288495,435.523819 53.2212878,406.488899 31.9327727,369.27039 C10.6442576,332.051881 0,290.125003 0,243.489767 C0,196.854525 10.6442576,155.039756 31.9327727,118.045453 C53.2212878,81.0511506 82.1288495,52.1283328 118.655458,31.2769997 C155.182072,10.4256666 195.630251,0 240,0 Z M236.40449,109.223675 C198.445381,109.223675 168.28145,121.521958 145.91269,146.118525 C123.543929,170.715098 112.359546,204.225099 112.359546,246.648541 C112.359546,288.620671 123.543929,322.017846 145.91269,346.840071 C168.28145,371.662297 198.445381,384.073407 236.40449,384.073407 C273.911707,384.073407 303.962668,371.662297 326.557374,346.840071 C349.15208,322.017846 360.449433,288.620671 360.449433,246.648541 C360.449433,204.676417 349.265056,171.279236 326.896296,146.45701 C304.527536,121.634785 274.363598,109.223675 236.40449,109.223675 Z" id="logo_login"></path>
        </g>
    </g>
</svg>